# xmcd
#
# Track frame offsets:
#	150
#	20490
#	40783
#	55526
#	82122
#	104594
#	127591
#	145328
#	155773
#	181931
#	193703
#	209676
#
# Disc length: 3143 seconds
#
# Revision: 2
# Processed by: cddbd v1.5PL3 Copyright (c) Steve Scherf et al.
# Submitted via: audiograbber 1.83.01
#
DISCID=a50c450c
DTITLE=Various Artist - A Chicago Blues Tour
DYEAR=1998
DGENRE=Blues
TTITLE0=Buddy Guy - Damn Right, I'Ve Got The Blues
TTITLE1=Carl Weathersby - Hipshakin' Woman
TTITLE2=Magic Slim and The Teardrops - Just Before You Go
TTITLE3=John Primer - Inflation Blues
TTITLE4=Koko Taylor - Big Boss Man
TTITLE5=Junior Wells - The Train I Ride
TTITLE6=Willie Kent - That You Doin' To Me
TTITLE7=Eddie Shaw - Take Home Pay
TTITLE8=Dave Specter and The Bluebirds - Sweet Serenity
TTITLE9=Eddie Clearwater - Set It Out
TTITLE10=Otis Rush - Homework
TTITLE11=Jimmy Johnson - That Will Never Do
EXTD=
EXTT0=
EXTT1=
EXTT2=
EXTT3=
EXTT4=
EXTT5=
EXTT6=
EXTT7=
EXTT8=
EXTT9=
EXTT10=
EXTT11=
PLAYORDER=
